<svg xmlns="http://www.w3.org/2000/svg" viewBox="0 0 1600 1000" width="1600" height="1000">
  <defs>
    <linearGradient id="wall" x1="0" x2="1" y1="0" y2="1">
      <stop offset="0" stop-color="#27313a"/>
      <stop offset="0.42" stop-color="#8a7f73"/>
      <stop offset="1" stop-color="#2b2f36"/>
    </linearGradient>
    <linearGradient id="lamp" x1="0" x2="1">
      <stop offset="0" stop-color="#ffdf9a" stop-opacity="0.86"/>
      <stop offset="1" stop-color="#fff7ec" stop-opacity="0.18"/>
    </linearGradient>
  </defs>
  <rect width="1600" height="1000" fill="url(#wall)"/>
  <rect x="0" y="0" width="520" height="1000" fill="#111821" opacity="0.62"/>
  <rect x="520" y="0" width="54" height="1000" fill="#806b5b" opacity="0.58"/>
  <rect x="980" y="0" width="620" height="1000" fill="#bbb2a7" opacity="0.25"/>
  <ellipse cx="720" cy="130" rx="850" ry="260" fill="url(#lamp)"/>

  <g id="person-left" transform="translate(30 80) rotate(-5 240 360)">
    <path d="M30 820 C40 620 70 430 190 342 C288 269 420 326 468 455 C520 595 520 738 548 900 L16 900 Z" fill="#101113"/>
    <ellipse cx="258" cy="247" rx="150" ry="170" fill="#f0c3a5"/>
    <path d="M86 236 C92 72 242 34 386 96 C458 128 462 227 430 310 C370 224 252 178 126 286 Z" fill="#101010"/>
    <path d="M112 308 C44 238 79 116 185 62 C283 14 407 42 455 128 C337 101 240 136 151 216 Z" fill="#090909"/>
    <ellipse cx="208" cy="248" rx="16" ry="10" fill="#17131c"/>
    <ellipse cx="316" cy="247" rx="16" ry="10" fill="#17131c"/>
    <path d="M225 326 C258 348 305 342 334 318" fill="none" stroke="#9b5b55" stroke-width="9" stroke-linecap="round"/>
  </g>

  <g id="person-front-left" transform="translate(330 370)">
    <path d="M-70 620 C-50 430 34 315 182 286 C360 250 462 390 500 620 Z" fill="#f1e6d6"/>
    <ellipse cx="215" cy="168" rx="122" ry="136" fill="#efc3aa"/>
    <path d="M78 186 C58 44 190 -42 323 42 C404 94 392 210 350 294 C316 164 204 122 84 226 Z" fill="#4a2c22"/>
    <ellipse cx="172" cy="166" rx="13" ry="9" fill="#17131c"/>
    <ellipse cx="254" cy="166" rx="13" ry="9" fill="#17131c"/>
    <path d="M172 230 C206 253 252 247 281 220" fill="none" stroke="#a65a61" stroke-width="8" stroke-linecap="round"/>
  </g>

  <g id="person-center" transform="translate(650 72)">
    <path d="M-70 860 C-28 626 12 430 142 346 C290 252 462 342 522 504 C566 620 554 736 594 900 L-92 900 Z" fill="#e2d9cd"/>
    <ellipse cx="248" cy="253" rx="130" ry="148" fill="#c98767"/>
    <path d="M102 226 C75 82 190 26 298 49 C420 74 434 207 376 304 C330 188 230 172 118 280 Z" fill="#0e0e0f"/>
    <circle cx="205" cy="254" r="34" fill="none" stroke="#2b2f36" stroke-width="6"/>
    <circle cx="298" cy="254" r="34" fill="none" stroke="#2b2f36" stroke-width="6"/>
    <path d="M239 254 L263 254" stroke="#2b2f36" stroke-width="5"/>
    <ellipse cx="205" cy="254" rx="9" ry="7" fill="#17131c"/>
    <ellipse cx="298" cy="254" rx="9" ry="7" fill="#17131c"/>
    <path d="M196 330 C232 364 296 360 330 324" fill="none" stroke="#653b35" stroke-width="10" stroke-linecap="round"/>
  </g>

  <g id="person-front-right" transform="translate(935 372)">
    <path d="M-34 656 C-8 420 106 302 274 302 C448 306 548 438 598 660 Z" fill="#111113"/>
    <ellipse cx="278" cy="176" rx="128" ry="138" fill="#e9b99f"/>
    <path d="M142 164 C142 44 264 -24 374 66 C462 138 426 248 402 300 C355 176 248 132 146 236 Z" fill="#151313"/>
    <path d="M135 88 C230 42 356 60 420 162 C322 126 238 130 150 190 Z" fill="#0b0b0c"/>
    <ellipse cx="236" cy="172" rx="13" ry="9" fill="#17131c"/>
    <ellipse cx="320" cy="172" rx="13" ry="9" fill="#17131c"/>
    <path d="M232 242 C270 276 328 268 358 232" fill="none" stroke="#a75559" stroke-width="9" stroke-linecap="round"/>
  </g>

  <g id="person-right" transform="translate(1270 114)">
    <path d="M-64 846 C-34 618 22 438 160 356 C306 270 446 346 514 500 C572 632 552 762 596 900 L-96 900 Z" fill="#16191c"/>
    <ellipse cx="230" cy="238" rx="126" ry="144" fill="#d7aa8e"/>
    <path d="M90 220 C86 76 226 22 342 82 C424 126 432 240 374 320 C342 194 222 154 100 276 Z" fill="#343434"/>
    <path d="M96 116 C190 34 324 44 390 136 C292 108 206 118 112 188 Z" fill="#171719"/>
    <ellipse cx="190" cy="238" rx="12" ry="8" fill="#17131c"/>
    <ellipse cx="276" cy="238" rx="12" ry="8" fill="#17131c"/>
    <path d="M190 304 C224 332 276 328 306 296" fill="none" stroke="#8d5551" stroke-width="8" stroke-linecap="round"/>
  </g>

  <rect x="0" y="0" width="1600" height="1000" fill="none" stroke="#ffffff" stroke-opacity="0.08" stroke-width="18"/>
</svg>
